<mxfile host="app.diagrams.net" modified="2023-10-29T22:59:33.613Z" agent="Mozilla/5.0 (Windows NT 10.0; Win64; x64) AppleWebKit/537.36 (KHTML, like Gecko) Chrome/118.0.0.0 Safari/537.36" etag="K0w8wiGJAxuimNQczm9n" version="22.0.8" type="device">
  <diagram id="RX8j35DpNfyJVcPfTA0C" name="Page-1">
    <mxGraphModel dx="882" dy="590" grid="1" gridSize="10" guides="1" tooltips="1" connect="1" arrows="1" fold="1" page="1" pageScale="1" pageWidth="850" pageHeight="1100" math="0" shadow="0">
      <root>
        <mxCell id="0" />
        <mxCell id="1" parent="0" />
        <mxCell id="ehj2s4JNe59QxrL474BH-8" style="edgeStyle=orthogonalEdgeStyle;rounded=0;orthogonalLoop=1;jettySize=auto;html=1;exitX=1;exitY=0.5;exitDx=0;exitDy=0;entryX=0;entryY=0.5;entryDx=0;entryDy=0;" parent="1" source="ehj2s4JNe59QxrL474BH-1" target="ehj2s4JNe59QxrL474BH-2" edge="1">
          <mxGeometry relative="1" as="geometry" />
        </mxCell>
        <mxCell id="ehj2s4JNe59QxrL474BH-1" value="User" style="rounded=1;whiteSpace=wrap;html=1;" parent="1" vertex="1">
          <mxGeometry x="40" y="240" width="120" height="60" as="geometry" />
        </mxCell>
        <mxCell id="vfbfAL9CuXn_sHPPWvU1-1" style="edgeStyle=orthogonalEdgeStyle;rounded=0;orthogonalLoop=1;jettySize=auto;html=1;exitX=0;exitY=0.5;exitDx=0;exitDy=0;entryX=1;entryY=0.5;entryDx=0;entryDy=0;" edge="1" parent="1" source="ehj2s4JNe59QxrL474BH-2" target="ehj2s4JNe59QxrL474BH-1">
          <mxGeometry relative="1" as="geometry" />
        </mxCell>
        <mxCell id="vfbfAL9CuXn_sHPPWvU1-5" style="edgeStyle=orthogonalEdgeStyle;rounded=0;orthogonalLoop=1;jettySize=auto;html=1;exitX=0.5;exitY=1;exitDx=0;exitDy=0;entryX=0.5;entryY=0;entryDx=0;entryDy=0;" edge="1" parent="1" source="ehj2s4JNe59QxrL474BH-2" target="ehj2s4JNe59QxrL474BH-3">
          <mxGeometry relative="1" as="geometry" />
        </mxCell>
        <mxCell id="ehj2s4JNe59QxrL474BH-2" value="Load balancer" style="rounded=1;whiteSpace=wrap;html=1;" parent="1" vertex="1">
          <mxGeometry x="240" y="240" width="120" height="60" as="geometry" />
        </mxCell>
        <mxCell id="vfbfAL9CuXn_sHPPWvU1-6" style="edgeStyle=orthogonalEdgeStyle;rounded=0;orthogonalLoop=1;jettySize=auto;html=1;exitX=0.5;exitY=0;exitDx=0;exitDy=0;entryX=0.5;entryY=1;entryDx=0;entryDy=0;" edge="1" parent="1" source="ehj2s4JNe59QxrL474BH-3" target="ehj2s4JNe59QxrL474BH-2">
          <mxGeometry relative="1" as="geometry" />
        </mxCell>
        <mxCell id="vfbfAL9CuXn_sHPPWvU1-7" style="edgeStyle=orthogonalEdgeStyle;rounded=0;orthogonalLoop=1;jettySize=auto;html=1;exitX=0.5;exitY=1;exitDx=0;exitDy=0;entryX=0.5;entryY=0;entryDx=0;entryDy=0;" edge="1" parent="1" source="ehj2s4JNe59QxrL474BH-3" target="ehj2s4JNe59QxrL474BH-7">
          <mxGeometry relative="1" as="geometry" />
        </mxCell>
        <mxCell id="ehj2s4JNe59QxrL474BH-3" value="API gateway" style="rounded=1;whiteSpace=wrap;html=1;" parent="1" vertex="1">
          <mxGeometry x="240" y="360" width="120" height="60" as="geometry" />
        </mxCell>
        <mxCell id="ehj2s4JNe59QxrL474BH-11" style="edgeStyle=orthogonalEdgeStyle;rounded=0;orthogonalLoop=1;jettySize=auto;html=1;exitX=0;exitY=0.5;exitDx=0;exitDy=0;entryX=1;entryY=0.5;entryDx=0;entryDy=0;" parent="1" source="ehj2s4JNe59QxrL474BH-4" target="ehj2s4JNe59QxrL474BH-5" edge="1">
          <mxGeometry relative="1" as="geometry" />
        </mxCell>
        <mxCell id="ehj2s4JNe59QxrL474BH-4" value="App server" style="rounded=1;whiteSpace=wrap;html=1;" parent="1" vertex="1">
          <mxGeometry x="440" y="120" width="120" height="60" as="geometry" />
        </mxCell>
        <mxCell id="ehj2s4JNe59QxrL474BH-12" style="edgeStyle=orthogonalEdgeStyle;rounded=0;orthogonalLoop=1;jettySize=auto;html=1;exitX=0;exitY=0.5;exitDx=0;exitDy=0;entryX=0.5;entryY=0;entryDx=0;entryDy=0;" parent="1" source="ehj2s4JNe59QxrL474BH-5" target="ehj2s4JNe59QxrL474BH-1" edge="1">
          <mxGeometry relative="1" as="geometry" />
        </mxCell>
        <mxCell id="ehj2s4JNe59QxrL474BH-5" value="CDN" style="rounded=1;whiteSpace=wrap;html=1;" parent="1" vertex="1">
          <mxGeometry x="240" y="120" width="120" height="60" as="geometry" />
        </mxCell>
        <mxCell id="vfbfAL9CuXn_sHPPWvU1-19" style="edgeStyle=orthogonalEdgeStyle;rounded=0;orthogonalLoop=1;jettySize=auto;html=1;exitX=1;exitY=0.5;exitDx=0;exitDy=0;entryX=0;entryY=0.5;entryDx=0;entryDy=0;" edge="1" parent="1" source="ehj2s4JNe59QxrL474BH-7" target="ehj2s4JNe59QxrL474BH-15">
          <mxGeometry relative="1" as="geometry" />
        </mxCell>
        <mxCell id="vfbfAL9CuXn_sHPPWvU1-33" style="edgeStyle=orthogonalEdgeStyle;rounded=0;orthogonalLoop=1;jettySize=auto;html=1;exitX=0.5;exitY=1;exitDx=0;exitDy=0;entryX=0.5;entryY=0;entryDx=0;entryDy=0;" edge="1" parent="1" source="ehj2s4JNe59QxrL474BH-7" target="ehj2s4JNe59QxrL474BH-17">
          <mxGeometry relative="1" as="geometry" />
        </mxCell>
        <mxCell id="ehj2s4JNe59QxrL474BH-7" value="Operations queue" style="rounded=1;whiteSpace=wrap;html=1;" parent="1" vertex="1">
          <mxGeometry x="240" y="480" width="120" height="60" as="geometry" />
        </mxCell>
        <mxCell id="vfbfAL9CuXn_sHPPWvU1-21" style="edgeStyle=orthogonalEdgeStyle;rounded=0;orthogonalLoop=1;jettySize=auto;html=1;exitX=0.5;exitY=1;exitDx=0;exitDy=0;entryX=0.5;entryY=0;entryDx=0;entryDy=0;" edge="1" parent="1" source="ehj2s4JNe59QxrL474BH-15" target="ehj2s4JNe59QxrL474BH-20">
          <mxGeometry relative="1" as="geometry" />
        </mxCell>
        <mxCell id="vfbfAL9CuXn_sHPPWvU1-23" style="edgeStyle=orthogonalEdgeStyle;rounded=0;orthogonalLoop=1;jettySize=auto;html=1;exitX=1;exitY=0.5;exitDx=0;exitDy=0;entryX=0;entryY=0.5;entryDx=0;entryDy=0;" edge="1" parent="1" source="ehj2s4JNe59QxrL474BH-15" target="vfbfAL9CuXn_sHPPWvU1-3">
          <mxGeometry relative="1" as="geometry" />
        </mxCell>
        <mxCell id="vfbfAL9CuXn_sHPPWvU1-29" style="edgeStyle=orthogonalEdgeStyle;rounded=0;orthogonalLoop=1;jettySize=auto;html=1;exitX=0.5;exitY=0;exitDx=0;exitDy=0;" edge="1" parent="1" source="ehj2s4JNe59QxrL474BH-15" target="vfbfAL9CuXn_sHPPWvU1-27">
          <mxGeometry relative="1" as="geometry" />
        </mxCell>
        <mxCell id="ehj2s4JNe59QxrL474BH-15" value="Session server" style="rounded=1;whiteSpace=wrap;html=1;" parent="1" vertex="1">
          <mxGeometry x="440" y="480" width="120" height="60" as="geometry" />
        </mxCell>
        <mxCell id="ehj2s4JNe59QxrL474BH-17" value="Blob storage" style="rounded=1;whiteSpace=wrap;html=1;" parent="1" vertex="1">
          <mxGeometry x="240" y="600" width="120" height="60" as="geometry" />
        </mxCell>
        <mxCell id="vfbfAL9CuXn_sHPPWvU1-22" style="edgeStyle=orthogonalEdgeStyle;rounded=0;orthogonalLoop=1;jettySize=auto;html=1;exitX=0.5;exitY=0;exitDx=0;exitDy=0;entryX=0.5;entryY=1;entryDx=0;entryDy=0;" edge="1" parent="1" source="ehj2s4JNe59QxrL474BH-20" target="ehj2s4JNe59QxrL474BH-15">
          <mxGeometry relative="1" as="geometry" />
        </mxCell>
        <mxCell id="ehj2s4JNe59QxrL474BH-20" value="Time series DB" style="rounded=1;whiteSpace=wrap;html=1;" parent="1" vertex="1">
          <mxGeometry x="440" y="600" width="120" height="60" as="geometry" />
        </mxCell>
        <mxCell id="vfbfAL9CuXn_sHPPWvU1-24" style="edgeStyle=orthogonalEdgeStyle;rounded=0;orthogonalLoop=1;jettySize=auto;html=1;exitX=0;exitY=0.5;exitDx=0;exitDy=0;" edge="1" parent="1" source="vfbfAL9CuXn_sHPPWvU1-3">
          <mxGeometry relative="1" as="geometry">
            <mxPoint x="560" y="510" as="targetPoint" />
          </mxGeometry>
        </mxCell>
        <mxCell id="vfbfAL9CuXn_sHPPWvU1-25" style="edgeStyle=orthogonalEdgeStyle;rounded=0;orthogonalLoop=1;jettySize=auto;html=1;exitX=0.5;exitY=1;exitDx=0;exitDy=0;entryX=0.5;entryY=0;entryDx=0;entryDy=0;" edge="1" parent="1" source="vfbfAL9CuXn_sHPPWvU1-3" target="vfbfAL9CuXn_sHPPWvU1-4">
          <mxGeometry relative="1" as="geometry" />
        </mxCell>
        <mxCell id="vfbfAL9CuXn_sHPPWvU1-3" value="Redis" style="rounded=1;whiteSpace=wrap;html=1;" vertex="1" parent="1">
          <mxGeometry x="640" y="480" width="120" height="60" as="geometry" />
        </mxCell>
        <mxCell id="vfbfAL9CuXn_sHPPWvU1-26" style="edgeStyle=orthogonalEdgeStyle;rounded=0;orthogonalLoop=1;jettySize=auto;html=1;exitX=0.5;exitY=0;exitDx=0;exitDy=0;entryX=0.5;entryY=1;entryDx=0;entryDy=0;" edge="1" parent="1" source="vfbfAL9CuXn_sHPPWvU1-4" target="vfbfAL9CuXn_sHPPWvU1-3">
          <mxGeometry relative="1" as="geometry" />
        </mxCell>
        <mxCell id="vfbfAL9CuXn_sHPPWvU1-32" style="edgeStyle=orthogonalEdgeStyle;rounded=0;orthogonalLoop=1;jettySize=auto;html=1;exitX=1;exitY=0.5;exitDx=0;exitDy=0;entryX=1;entryY=0.5;entryDx=0;entryDy=0;" edge="1" parent="1" source="vfbfAL9CuXn_sHPPWvU1-4" target="vfbfAL9CuXn_sHPPWvU1-28">
          <mxGeometry relative="1" as="geometry">
            <Array as="points">
              <mxPoint x="800" y="630" />
              <mxPoint x="800" y="390" />
            </Array>
          </mxGeometry>
        </mxCell>
        <mxCell id="vfbfAL9CuXn_sHPPWvU1-4" value="Typeahead service" style="rounded=1;whiteSpace=wrap;html=1;" vertex="1" parent="1">
          <mxGeometry x="640" y="600" width="120" height="60" as="geometry" />
        </mxCell>
        <mxCell id="vfbfAL9CuXn_sHPPWvU1-30" style="edgeStyle=orthogonalEdgeStyle;rounded=0;orthogonalLoop=1;jettySize=auto;html=1;exitX=0.5;exitY=0;exitDx=0;exitDy=0;entryX=0.5;entryY=1;entryDx=0;entryDy=0;" edge="1" parent="1" source="vfbfAL9CuXn_sHPPWvU1-27" target="ehj2s4JNe59QxrL474BH-4">
          <mxGeometry relative="1" as="geometry" />
        </mxCell>
        <mxCell id="vfbfAL9CuXn_sHPPWvU1-27" value="RDBMS" style="rounded=1;whiteSpace=wrap;html=1;" vertex="1" parent="1">
          <mxGeometry x="440" y="360" width="120" height="60" as="geometry" />
        </mxCell>
        <mxCell id="vfbfAL9CuXn_sHPPWvU1-31" style="edgeStyle=orthogonalEdgeStyle;rounded=0;orthogonalLoop=1;jettySize=auto;html=1;exitX=0.5;exitY=0;exitDx=0;exitDy=0;entryX=1;entryY=0.5;entryDx=0;entryDy=0;" edge="1" parent="1" source="vfbfAL9CuXn_sHPPWvU1-28" target="ehj2s4JNe59QxrL474BH-4">
          <mxGeometry relative="1" as="geometry" />
        </mxCell>
        <mxCell id="vfbfAL9CuXn_sHPPWvU1-28" value="NoSQL" style="rounded=1;whiteSpace=wrap;html=1;" vertex="1" parent="1">
          <mxGeometry x="640" y="360" width="120" height="60" as="geometry" />
        </mxCell>
      </root>
    </mxGraphModel>
  </diagram>
</mxfile>
